<svg width="59" height="59" viewBox="0 0 59 59" fill="none" xmlns="http://www.w3.org/2000/svg">
<g clip-path="url(#clip0_819_11045)">
<path fill-rule="evenodd" clip-rule="evenodd" d="M2.18429 27.1C16.8204 40.1348 36.2052 36.1658 51.4976 26.13C51.7606 25.9581 52.1144 26.0309 52.2863 26.2938C52.4582 26.5568 52.3854 26.9106 52.1224 27.0825C36.4023 37.4003 16.4723 41.3501 1.42631 27.9499C1.19149 27.7416 1.17095 27.3816 1.38034 27.1459C1.58862 26.9111 1.94854 26.8906 2.18429 27.1Z" fill="#FF3366"/>
<path fill-rule="evenodd" clip-rule="evenodd" d="M51.5233 26.7949C50.5247 26.8616 49.2723 26.9591 49.1299 26.966C45.2698 27.1538 41.5876 26.7327 37.8393 25.7589C37.535 25.6802 37.3521 25.3683 37.4308 25.064C37.5094 24.7597 37.8213 24.5768 38.1257 24.6555C41.76 25.6009 45.3311 26.0103 49.0754 25.8277C49.2937 25.8172 52.1088 25.5962 52.6813 25.5942C52.9162 25.5923 53.0497 25.6642 53.0795 25.6842C53.2422 25.7841 53.3062 25.9162 53.3353 26.0269C53.3672 26.1522 53.3694 26.3717 53.2178 26.6115C53.0582 26.8618 52.6017 27.2974 52.4954 27.4166C50.8958 29.2204 48.9534 31.0942 47.512 33.1894C46.1373 35.1874 45.2172 37.3894 45.5864 39.945C45.6316 40.256 45.4145 40.5452 45.1034 40.5904C44.7924 40.6356 44.5032 40.4186 44.458 40.1075C44.0457 37.2502 45.0366 34.7768 46.5727 32.544C48.0058 30.4613 49.9184 28.59 51.5233 26.7949Z" fill="#FF3366"/>
</g>
<defs>
<clipPath id="clip0_819_11045">
<rect width="41.2451" height="41.2451" fill="white" transform="matrix(-0.766044 0.642788 0.642788 0.766044 31.5957 0)"/>
</clipPath>
</defs>
</svg>
