<svg width="24" height="24" viewBox="0 0 24 24" fill="none" xmlns="http://www.w3.org/2000/svg">
<path d="M21.5625 12C21.5625 10.1088 21.0017 8.26011 19.9511 6.68762C18.9005 5.11512 17.4072 3.88947 15.66 3.16564C13.9128 2.4418 11.9902 2.25229 10.1353 2.62107C8.28047 2.98984 6.57659 3.90034 5.23916 5.23743C3.90172 6.57453 2.99079 8.27818 2.62154 10.133C2.2523 11.9877 2.44132 13.9104 3.16471 15.6577C3.8881 17.4051 5.11337 18.8987 6.68559 19.9497C8.25781 21.0008 10.1064 21.562 11.9976 21.5625H12L12.0024 21.5624C14.5373 21.5589 16.9672 20.5502 18.7594 18.7576C20.5516 16.965 21.5596 14.5348 21.5625 12ZM12.5625 20.4183V14.0626H15C15.1492 14.0626 15.2923 14.0033 15.3978 13.8978C15.5032 13.7924 15.5625 13.6493 15.5625 13.5001C15.5625 13.3509 15.5032 13.2078 15.3978 13.1024C15.2923 12.9969 15.1492 12.9376 15 12.9376H12.5625V10.5001C12.563 10.0527 12.7409 9.62376 13.0573 9.3074C13.3737 8.99104 13.8026 8.81309 14.25 8.8126H15.75C15.8992 8.8126 16.0423 8.75333 16.1478 8.64785C16.2532 8.54236 16.3125 8.39928 16.3125 8.2501C16.3125 8.10091 16.2532 7.95784 16.1478 7.85235C16.0423 7.74686 15.8992 7.6876 15.75 7.6876H14.25C13.5043 7.68844 12.7895 7.98503 12.2622 8.51229C11.7349 9.03956 11.4383 9.75444 11.4375 10.5001V12.9376H9C8.85082 12.9376 8.70775 12.9969 8.60226 13.1024C8.49677 13.2078 8.4375 13.3509 8.4375 13.5001C8.4375 13.6493 8.49677 13.7924 8.60226 13.8978C8.70775 14.0033 8.85082 14.0626 9 14.0626H11.4375V20.4183C9.25334 20.2724 7.21138 19.2833 5.74285 17.6599C4.27432 16.0365 3.49419 13.906 3.5672 11.7182C3.64021 9.53033 4.56064 7.45652 6.13413 5.93467C7.70761 4.41281 9.81097 3.56206 12 3.56206C14.189 3.56206 16.2924 4.41281 17.8659 5.93467C19.4394 7.45652 20.3598 9.53033 20.4328 11.7182C20.5058 13.906 19.7257 16.0365 18.2572 17.6599C16.7886 19.2833 14.7467 20.2724 12.5625 20.4183Z" fill="white"/>
</svg>
