<svg width="151" height="47" viewBox="0 0 151 47" fill="none" xmlns="http://www.w3.org/2000/svg">
<path d="M8.65308 31.5625C8.83814 31.8396 9.11564 32.1632 9.48576 32.6251C9.85589 33.0411 10.3646 33.5031 10.9661 33.9189C11.5674 34.3348 12.2611 34.7044 13.094 35.0279C13.9265 35.3513 14.8516 35.4898 15.8694 35.4898C16.7945 35.4898 17.6735 35.3513 18.4599 35.1202C19.2463 34.8892 19.94 34.5196 20.495 34.0114C21.0502 33.5031 21.513 32.8101 21.7905 31.9323C22.068 31.0544 22.253 29.9916 22.253 28.698V11.6949C22.253 10.8632 22.4844 10.2625 22.9931 9.8929C23.502 9.52329 24.1494 9.29224 24.9823 9.29224C25.4911 9.29224 25.9998 9.38473 26.4626 9.52329C26.9251 9.66184 27.249 9.80059 27.3875 9.8929V29.0213C27.3875 30.6848 27.1563 32.1632 26.6938 33.5031C26.231 34.8429 25.5373 35.9982 24.566 36.922C23.6407 37.8462 22.4381 38.5855 21.0502 39.1399C19.6625 39.6482 17.9971 39.9253 16.0545 39.9253C14.3428 39.9253 12.8163 39.6943 11.5211 39.1861C10.226 38.7242 9.11564 38.1696 8.19051 37.5689C7.31151 36.9685 6.57164 36.3676 6.06276 35.7672C5.5537 35.1663 5.22989 34.7969 5.13745 34.5658L8.65308 31.5625Z" fill="#486AF6"/>
<path d="M43.4392 16.6849C45.1046 16.6849 46.6773 16.962 48.1576 17.5627C49.6379 18.1634 50.8869 18.9488 51.9507 19.9653C53.0148 20.9819 53.8475 22.2294 54.4949 23.6154C55.0962 25.0015 55.4202 26.5724 55.4202 28.1898C55.4202 29.8068 55.0962 31.3315 54.4949 32.7178C53.8936 34.1037 53.0611 35.3513 51.9507 36.3676C50.8869 37.3841 49.5918 38.216 48.1576 38.8165C46.6773 39.4171 45.1046 39.6943 43.4392 39.6943C41.7742 39.6943 40.2014 39.4171 38.7211 38.8165C37.2408 38.216 35.9919 37.4304 34.9278 36.3676C33.8639 35.3513 33.0312 34.1037 32.3838 32.7178C31.7821 31.3315 31.4585 29.8068 31.4585 28.1898C31.4585 26.5264 31.7821 25.0015 32.3838 23.6154C32.9851 22.2294 33.8176 20.9819 34.9278 19.9653C35.9919 18.9488 37.2869 18.1173 38.7211 17.5627C40.2014 16.962 41.7742 16.6849 43.4392 16.6849ZM43.4392 35.3513C44.4108 35.3513 45.3359 35.1663 46.1686 34.7969C47.0011 34.4271 47.7414 33.9189 48.3427 33.2722C48.944 32.6251 49.4067 31.8859 49.7304 31.0081C50.0542 30.1301 50.2392 29.2061 50.2392 28.1898C50.2392 27.1733 50.0542 26.203 49.7304 25.325C49.4067 24.4473 48.944 23.6618 48.3427 23.061C47.7414 22.4142 47.0474 21.9061 46.1686 21.5823C45.3359 21.2129 44.4108 21.0281 43.4392 21.0281C42.4216 21.0281 41.4965 21.2129 40.6638 21.5823C39.8313 21.9521 39.1374 22.4605 38.5361 23.061C37.9347 23.7079 37.472 24.4473 37.1484 25.325C36.8244 26.203 36.6395 27.1733 36.6395 28.1898C36.6395 29.2061 36.8244 30.1301 37.1484 31.0081C37.472 31.8859 37.9347 32.6251 38.5361 33.2722C39.1374 33.9189 39.8313 34.4271 40.6638 34.7969C41.5428 35.1663 42.4216 35.3513 43.4392 35.3513Z" fill="#486AF6"/>
<path d="M59.0747 9.38473C59.0747 8.59926 59.3061 8.04485 59.7686 7.629C60.231 7.25939 60.8788 7.07458 61.7113 7.07458C62.2204 7.07458 62.7291 7.12064 63.1455 7.25939C63.5618 7.39794 63.8854 7.49044 64.0243 7.5365V20.0116C64.7644 19.0874 65.7358 18.3019 67.0311 17.6552C68.3263 17.0083 69.7603 16.685 71.4257 16.685C73.0446 16.685 74.4788 16.9621 75.8665 17.5165C77.2078 18.0709 78.4105 18.9028 79.3821 19.9193C80.3996 20.9356 81.186 22.1832 81.7412 23.5691C82.2964 24.9555 82.5737 26.5264 82.5737 28.1898C82.5737 29.8529 82.2964 31.3777 81.6949 32.8101C81.0936 34.2425 80.307 35.4436 79.2433 36.4603C78.1793 37.4766 76.9766 38.2621 75.5425 38.8628C74.1086 39.4632 72.5359 39.7407 70.8244 39.7407C69.1127 39.7407 67.54 39.4632 66.106 38.9551C64.672 38.4469 63.423 37.6614 62.4053 36.5987C61.3414 35.5361 60.555 34.2425 59.9537 32.6714C59.3524 31.1004 59.0747 29.2524 59.0747 27.1269V9.38473ZM70.7781 35.2588C71.7495 35.2588 72.6745 35.074 73.5073 34.7044C74.3398 34.3348 75.0338 33.8264 75.6351 33.226C76.2364 32.6251 76.6991 31.8859 77.0228 31.0081C77.3468 30.1302 77.4855 29.2061 77.4855 28.1898C77.4855 27.1733 77.3468 26.2491 77.0228 25.3711C76.6991 24.4934 76.2364 23.7541 75.6351 23.1535C75.0338 22.5528 74.3398 22.0445 73.5073 21.675C72.6745 21.3052 71.7495 21.1206 70.7781 21.1206C69.7603 21.1206 68.835 21.3052 68.0025 21.675C67.17 22.0445 66.4761 22.5528 65.8746 23.1535C65.2733 23.8002 64.857 24.5396 64.4869 25.4176C64.1631 26.2953 63.978 27.2194 63.978 28.1898C63.978 29.2524 64.1631 30.1766 64.4869 31.0544C64.8107 31.9323 65.2733 32.6714 65.8746 33.272C66.4761 33.8727 67.17 34.3808 68.0025 34.7044C68.8815 35.074 69.7603 35.2588 70.7781 35.2588Z" fill="#486AF6"/>
<path d="M86.3208 9.38473C86.3208 8.59926 86.552 8.04485 87.0147 7.629C87.4771 7.25939 88.1247 7.07458 88.9574 7.07458C89.4663 7.07458 89.9752 7.12064 90.3914 7.25939C90.8077 7.39794 91.1315 7.49044 91.2704 7.5365V20.0116C92.0105 19.0874 92.9819 18.3019 94.2772 17.6552C95.5722 17.0083 97.0064 16.685 98.6718 16.685C100.291 16.685 101.725 16.9621 103.113 17.5165C104.454 18.0709 105.657 18.9028 106.628 19.9193C107.646 20.9356 108.432 22.1832 108.987 23.5691C109.542 24.9555 109.82 26.5264 109.82 28.1898C109.82 29.8529 109.542 31.3777 108.941 32.8101C108.339 34.2425 107.553 35.4436 106.489 36.4603C105.425 37.4766 104.223 38.2621 102.789 38.8628C101.355 39.4632 99.7818 39.7407 98.0703 39.7407C96.3586 39.7407 94.7859 39.4632 93.3521 38.9551C91.9179 38.4469 90.6691 37.6614 89.6512 36.5987C88.5875 35.5361 87.8011 34.2425 87.1998 32.6714C86.5983 31.1004 86.3208 29.2524 86.3208 27.1269V9.38473ZM97.9779 35.2588C98.9491 35.2588 99.8744 35.074 100.707 34.7044C101.54 34.3348 102.234 33.8264 102.835 33.226C103.436 32.6251 103.899 31.8859 104.223 31.0081C104.546 30.1302 104.685 29.2061 104.685 28.1898C104.685 27.1733 104.546 26.2491 104.223 25.3711C103.899 24.4934 103.436 23.7541 102.835 23.1535C102.234 22.5528 101.54 22.0445 100.707 21.675C99.8744 21.3052 98.9491 21.1206 97.9779 21.1206C96.9601 21.1206 96.035 21.3052 95.2023 21.675C94.3696 22.0445 93.6757 22.5528 93.0744 23.1535C92.4731 23.8002 92.0568 24.5396 91.6867 25.4176C91.3629 26.2953 91.1778 27.2194 91.1778 28.1898C91.1778 29.2524 91.3629 30.1766 91.6867 31.0544C92.0105 31.9323 92.4731 32.6714 93.0744 33.272C93.6757 33.8727 94.3696 34.3808 95.2023 34.7044C96.0811 35.074 97.0064 35.2588 97.9779 35.2588Z" fill="#486AF6"/>
<path d="M116.758 7.49023C117.591 7.49023 118.331 7.76753 118.886 8.36819C119.487 8.96885 119.765 9.66182 119.765 10.4935C119.765 11.3252 119.487 12.0645 118.886 12.6189C118.285 13.2195 117.591 13.4968 116.758 13.4968C115.926 13.4968 115.186 13.2195 114.63 12.6189C114.029 12.0182 113.751 11.3252 113.751 10.4935C113.751 9.66182 114.029 8.92261 114.63 8.36819C115.186 7.81378 115.88 7.49023 116.758 7.49023ZM114.261 19.5956C114.261 18.764 114.492 18.2096 114.954 17.8398C115.417 17.4704 116.065 17.2854 116.897 17.2854C117.406 17.2854 117.915 17.3317 118.331 17.4704C118.748 17.609 119.071 17.7015 119.21 17.7475V39.0938H114.261V19.5956Z" fill="#486AF6"/>
<path d="M124.53 25.9719C124.53 24.5396 124.808 23.2458 125.316 22.0907C125.872 20.9356 126.612 19.9653 127.537 19.1799C128.462 18.3944 129.619 17.7938 130.867 17.3317C132.163 16.916 133.597 16.6849 135.123 16.6849C136.65 16.6849 138.084 16.916 139.379 17.3317C140.674 17.7475 141.83 18.3484 142.756 19.1799C143.681 19.9653 144.421 20.9356 144.976 22.0907C145.485 23.2458 145.763 24.5396 145.763 25.9719V39.1398H140.813V27.2193C140.813 25.2325 140.35 23.7541 139.379 22.7376C138.407 21.7211 137.02 21.2129 135.17 21.2129C133.273 21.2129 131.885 21.7211 130.914 22.7376C129.988 23.7541 129.48 25.2788 129.48 27.2193V39.1398H124.53V25.9719Z" fill="#486AF6"/>
</svg>
