<svg width="137" height="43" viewBox="0 0 137 43" fill="none" xmlns="http://www.w3.org/2000/svg">
<path d="M7.49219 28.8762C7.66121 29.1297 7.91466 29.4257 8.25271 29.8483C8.59076 30.2289 9.05536 30.6516 9.60473 31.032C10.1539 31.4125 10.7876 31.7506 11.5482 32.0466C12.3086 32.3425 13.1535 32.4692 14.0831 32.4692C14.928 32.4692 15.7309 32.3425 16.4491 32.1311C17.1673 31.9197 17.8009 31.5816 18.3078 31.1166C18.8149 30.6516 19.2375 30.0176 19.491 29.2145C19.7444 28.4113 19.9135 27.4389 19.9135 26.2554V10.6994C19.9135 9.93845 20.1248 9.38891 20.5894 9.05076C21.0542 8.71261 21.6455 8.50122 22.4062 8.50122C22.871 8.50122 23.3356 8.58584 23.7582 8.71261C24.1807 8.83937 24.4764 8.96631 24.603 9.05076V26.5512C24.603 28.0731 24.3918 29.4257 23.9693 30.6516C23.5467 31.8774 22.9131 32.9343 22.026 33.7795C21.1809 34.6251 20.0825 35.3014 18.8149 35.8086C17.5475 36.2737 16.0264 36.5272 14.2521 36.5272C12.6888 36.5272 11.2946 36.3159 10.1116 35.8509C8.9288 35.4283 7.91466 34.9209 7.06971 34.3714C6.26689 33.822 5.59114 33.2723 5.12637 32.7229C4.66142 32.1732 4.36568 31.8353 4.28125 31.6239L7.49219 28.8762Z" fill="white"/>
<path d="M39.2634 15.2649C40.7844 15.2649 42.2209 15.5184 43.5729 16.068C44.9249 16.6175 46.0656 17.3361 47.0373 18.2661C48.0091 19.1961 48.7697 20.3375 49.361 21.6055C49.9102 22.8737 50.2061 24.3109 50.2061 25.7906C50.2061 27.27 49.9102 28.6649 49.361 29.9332C48.8118 31.2012 48.0514 32.3426 47.0373 33.2724C46.0656 34.2024 44.8828 34.9635 43.5729 35.5129C42.2209 36.0624 40.7844 36.316 39.2634 36.316C37.7427 36.316 36.3063 36.0624 34.9542 35.5129C33.6022 34.9635 32.4615 34.2447 31.4897 33.2724C30.518 32.3426 29.7575 31.2012 29.1662 29.9332C28.6166 28.6649 28.321 27.27 28.321 25.7906C28.321 24.2687 28.6166 22.8737 29.1662 21.6055C29.7154 20.3375 30.4757 19.1961 31.4897 18.2661C32.4615 17.3361 33.6444 16.5754 34.9542 16.068C36.3063 15.5184 37.7427 15.2649 39.2634 15.2649ZM39.2634 32.3426C40.1508 32.3426 40.9958 32.1734 41.7563 31.8354C42.5166 31.497 43.1927 31.0321 43.7419 30.4405C44.2911 29.8484 44.7138 29.1721 45.0094 28.3691C45.3051 27.5658 45.4741 26.7204 45.4741 25.7906C45.4741 24.8606 45.3051 23.9729 45.0094 23.1697C44.7138 22.3666 44.2911 21.648 43.7419 21.0983C43.1927 20.5066 42.5589 20.0417 41.7563 19.7455C40.9958 19.4075 40.1508 19.2384 39.2634 19.2384C38.334 19.2384 37.4891 19.4075 36.7286 19.7455C35.9682 20.0838 35.3344 20.5489 34.7852 21.0983C34.236 21.6901 33.8134 22.3666 33.5178 23.1697C33.2219 23.9729 33.053 24.8606 33.053 25.7906C33.053 26.7204 33.2219 27.5658 33.5178 28.3691C33.8134 29.1721 34.236 29.8484 34.7852 30.4405C35.3344 31.0321 35.9682 31.497 36.7286 31.8354C37.5314 32.1734 38.334 32.3426 39.2634 32.3426Z" fill="white"/>
<path d="M53.5439 8.58595C53.5439 7.86733 53.7553 7.3601 54.1777 6.97964C54.6 6.64149 55.1917 6.47241 55.9521 6.47241C56.417 6.47241 56.8816 6.51455 57.262 6.64149C57.6421 6.76825 57.9377 6.85288 58.0646 6.89502V18.3084C58.7405 17.4629 59.6278 16.7443 60.8108 16.1526C61.9938 15.5607 63.3035 15.2649 64.8245 15.2649C66.3031 15.2649 67.613 15.5184 68.8804 16.0256C70.1055 16.5329 71.2039 17.294 72.0913 18.224C73.0207 19.1538 73.7389 20.2952 74.246 21.5632C74.7531 22.8315 75.0064 24.2687 75.0064 25.7906C75.0064 27.3121 74.7531 28.7072 74.2037 30.0177C73.6545 31.3281 72.9361 32.427 71.9646 33.3572C70.9928 34.2871 69.8944 35.0057 68.5845 35.5552C67.2749 36.1046 65.8385 36.3584 64.2753 36.3584C62.712 36.3584 61.2755 36.1046 59.9658 35.6397C58.6561 35.1747 57.5154 34.4561 56.5859 33.4838C55.6142 32.5117 54.896 31.3281 54.3468 29.8907C53.7976 28.4535 53.5439 26.7627 53.5439 24.8181V8.58595ZM64.233 32.258C65.1203 32.258 65.965 32.0889 66.7257 31.7507C67.4861 31.4126 68.1199 30.9475 68.6691 30.3981C69.2183 29.8484 69.6409 29.1721 69.9365 28.369C70.2324 27.5658 70.3591 26.7204 70.3591 25.7906C70.3591 24.8606 70.2324 24.015 69.9365 23.2118C69.6409 22.4087 69.2183 21.7324 68.6691 21.1829C68.1199 20.6333 67.4861 20.1683 66.7257 19.8303C65.965 19.492 65.1203 19.323 64.233 19.323C63.3035 19.323 62.4584 19.492 61.698 19.8303C60.9377 20.1683 60.3039 20.6333 59.7545 21.1829C59.2053 21.7746 58.8251 22.451 58.4871 23.2543C58.1913 24.0573 58.0223 24.9027 58.0223 25.7906C58.0223 26.7627 58.1913 27.6083 58.4871 28.4114C58.7828 29.2146 59.2053 29.8907 59.7545 30.4403C60.3039 30.9898 60.9377 31.4547 61.698 31.7507C62.5008 32.0889 63.3035 32.258 64.233 32.258Z" fill="white"/>
<path d="M78.4287 8.58595C78.4287 7.86733 78.6399 7.3601 79.0625 6.97964C79.4848 6.64149 80.0763 6.47241 80.8368 6.47241C81.3016 6.47241 81.7664 6.51455 82.1465 6.64149C82.5267 6.76825 82.8225 6.85288 82.9494 6.89502V18.3084C83.6253 17.4629 84.5125 16.7443 85.6955 16.1526C86.8784 15.5607 88.1882 15.2649 89.7093 15.2649C91.1879 15.2649 92.4978 15.5184 93.7652 16.0256C94.9903 16.5329 96.0887 17.294 96.9759 18.224C97.9055 19.1538 98.6237 20.2952 99.1308 21.5632C99.6377 22.8315 99.8911 24.2687 99.8911 25.7906C99.8911 27.3121 99.6377 28.7072 99.0885 30.0177C98.5391 31.3281 97.8211 32.427 96.8492 33.3572C95.8776 34.2871 94.7792 35.0057 93.4693 35.5552C92.1597 36.1046 90.7231 36.3584 89.1599 36.3584C87.5966 36.3584 86.1601 36.1046 84.8506 35.6397C83.5407 35.1747 82.4002 34.4561 81.4705 33.4838C80.499 32.5117 79.7807 31.3281 79.2315 29.8907C78.6822 28.4535 78.4287 26.7627 78.4287 24.8181V8.58595ZM89.0755 32.258C89.9626 32.258 90.8077 32.0889 91.568 31.7507C92.3287 31.4126 92.9624 30.9475 93.5116 30.3981C94.0609 29.8484 94.4834 29.1721 94.7792 28.369C95.0747 27.5658 95.2016 26.7204 95.2016 25.7906C95.2016 24.8606 95.0747 24.015 94.7792 23.2118C94.4834 22.4087 94.0609 21.7324 93.5116 21.1829C92.9624 20.6333 92.3287 20.1683 91.568 19.8303C90.8077 19.492 89.9626 19.323 89.0755 19.323C88.1459 19.323 87.301 19.492 86.5405 19.8303C85.78 20.1683 85.1462 20.6333 84.597 21.1829C84.0478 21.7746 83.6676 22.451 83.3295 23.2543C83.0338 24.0573 82.8648 24.9027 82.8648 25.7906C82.8648 26.7627 83.0338 27.6083 83.3295 28.4114C83.6253 29.2146 84.0478 29.8907 84.597 30.4403C85.1462 30.9898 85.78 31.4547 86.5405 31.7507C87.3431 32.0889 88.1882 32.258 89.0755 32.258Z" fill="white"/>
<path d="M106.229 6.85278C106.989 6.85278 107.665 7.10648 108.172 7.65602C108.721 8.20556 108.975 8.83956 108.975 9.60048C108.975 10.3614 108.721 11.0377 108.172 11.5449C107.623 12.0945 106.989 12.3482 106.229 12.3482C105.468 12.3482 104.792 12.0945 104.285 11.5449C103.736 10.9954 103.482 10.3614 103.482 9.60048C103.482 8.83956 103.736 8.16325 104.285 7.65602C104.792 7.1488 105.426 6.85278 106.229 6.85278ZM103.947 17.9279C103.947 17.1671 104.158 16.6599 104.581 16.3216C105.003 15.9836 105.595 15.8143 106.355 15.8143C106.82 15.8143 107.285 15.8566 107.665 15.9836C108.045 16.1103 108.341 16.195 108.468 16.2371V35.7667H103.947V17.9279Z" fill="white"/>
<path d="M113.326 23.7615C113.326 22.4511 113.58 21.2673 114.045 20.2106C114.552 19.1538 115.228 18.2661 116.073 17.5475C116.918 16.8289 117.974 16.2793 119.114 15.8566C120.297 15.4763 121.607 15.2649 123.001 15.2649C124.396 15.2649 125.705 15.4763 126.888 15.8566C128.071 16.237 129.127 16.7867 129.972 17.5475C130.818 18.2661 131.493 19.1538 132.001 20.2106C132.465 21.2673 132.719 22.4511 132.719 23.7615V35.8087H128.198V24.9027C128.198 23.085 127.776 21.7324 126.888 20.8024C126.001 19.8724 124.734 19.4075 123.044 19.4075C121.312 19.4075 120.044 19.8724 119.157 20.8024C118.312 21.7324 117.847 23.1274 117.847 24.9027V35.8087H113.326V23.7615Z" fill="white"/>
</svg>
