<svg width="60" height="61" viewBox="0 0 60 61" fill="none" xmlns="http://www.w3.org/2000/svg">
<path d="M30.9573 39.1147C32.0005 41.1006 34.4448 41.9306 36.5016 41.0151L39.4612 39.6594L46.2038 15.9771C46.9805 13.2493 45.3842 10.382 42.6563 9.60536C39.9286 8.8288 37.0613 10.4251 36.2847 13.153L29.6196 36.5625L30.9573 39.1147Z" fill="#486AF6"/>
<path d="M37.0174 43.1801C35.7217 43.7763 34.3122 43.8308 33.0227 43.4635C31.5348 43.0401 30.2341 42.0532 29.4748 40.5769L28.8789 39.469L28.8719 39.4937L22.9289 28.0702C21.609 25.5498 18.5128 24.5611 15.9675 25.8738C13.4471 27.1937 12.4582 30.2899 13.771 32.8353L20.8209 46.3969L20.9274 46.5879C22.1831 48.7685 24.2033 50.3356 26.5343 50.9991C27.7246 51.3381 28.9786 51.4538 30.2604 51.2827C34.0353 50.8294 37.1566 48.1526 38.1946 44.5072L38.7877 42.4242L37.0174 43.1801Z" fill="#FF3366"/>
</svg>
