<svg width="60" height="60" viewBox="0 0 60 60" fill="none" xmlns="http://www.w3.org/2000/svg">
<path d="M30.8873 38.4548C31.9304 40.4407 34.3748 41.2707 36.4316 40.3551L39.3911 38.9995L46.1338 15.3172C46.9104 12.5894 45.3141 9.72212 42.5863 8.94545C39.8585 8.16889 36.9913 9.76519 36.2146 12.4931L29.5496 35.9026L30.8873 38.4548Z" fill="#486AF6"/>
<path d="M36.9473 42.5202C35.6517 43.1163 34.2421 43.1709 32.9526 42.8036C31.4648 42.3802 30.1641 41.3933 29.4048 39.917L28.8089 38.8091L28.8018 38.8338L22.8589 27.4103C21.539 24.8899 18.4427 23.9011 15.8975 25.2139C13.3771 26.5338 12.3882 29.63 13.701 32.1754L20.7508 45.7369L20.8573 45.928C22.1131 48.1086 24.1332 49.6756 26.4642 50.3392C27.6545 50.6781 28.9085 50.7939 30.1903 50.6228C33.9653 50.1695 37.0866 47.4926 38.1245 43.8473L38.7176 41.7642L36.9473 42.5202Z" fill="#FF3366"/>
</svg>
