<svg width="63" height="59" viewBox="0 0 63 59" fill="none" xmlns="http://www.w3.org/2000/svg">
<path d="M61.3207 48.0052C60.8208 47.2095 60.1673 46.5214 59.3984 45.9812C58.6296 45.441 57.7607 45.0595 56.8427 44.8589C53.3304 44.042 50.2843 41.8681 48.3699 38.8122C46.4555 35.7562 45.8286 32.0667 46.6261 28.55C46.9327 27.1907 46.8309 25.7712 46.3333 24.4696C45.8358 23.1681 44.9648 22.0425 43.8298 21.2344C42.6946 20.4263 41.346 19.9716 39.9533 19.9274C38.5606 19.8832 37.1859 20.2515 36.0019 20.986C34.8178 21.7206 33.8772 22.7886 33.2981 24.0559C32.7191 25.3234 32.5274 26.7335 32.7472 28.1095C32.967 29.4855 33.5885 30.7658 34.5336 31.7897C35.4786 32.8136 36.7052 33.5355 38.0592 33.8645C39.8108 34.2596 41.4672 34.9965 42.9335 36.0331C44.3998 37.0695 45.647 38.3853 46.6038 39.9047C47.5606 41.4242 48.2081 43.1176 48.5092 44.8878C48.8103 46.658 48.7591 48.4702 48.3584 50.2206C48.1212 51.349 48.1634 52.5183 48.4816 53.6265C48.7998 54.7347 49.3843 55.7483 50.184 56.579C50.9837 57.4096 51.9744 58.0321 53.0698 58.3921C54.1652 58.7522 55.332 58.8388 56.4685 58.6445C57.6051 58.4503 58.6769 57.981 59.5906 57.2777C60.5042 56.5742 61.2319 55.6582 61.7104 54.6091C62.1888 53.5599 62.4034 52.4098 62.3355 51.2588C62.2676 50.1077 61.9192 48.9907 61.3207 48.0052Z" fill="#1D1D1D" fill-opacity="0.65"/>
<path d="M17.8493 40.1572C19.0862 40.8322 20.4964 41.1223 21.8992 40.9901C23.3021 40.858 24.6334 40.3097 25.7225 39.4157C26.8116 38.5216 27.6087 37.3226 28.0115 35.9724C28.4144 34.6222 28.4046 33.1824 27.9834 31.8378C27.4496 30.1232 27.2595 28.3202 27.4239 26.532C27.5883 24.7438 28.104 23.0057 28.9415 21.4172C29.779 19.8288 30.9218 18.4212 32.3043 17.2753C33.6868 16.1293 35.2819 15.2676 36.9982 14.7393C38.3293 14.3224 39.5072 13.521 40.3839 12.4362C41.2606 11.3513 41.7968 10.0314 41.9251 8.64246C42.0534 7.25352 41.768 5.85765 41.1048 4.63063C40.4417 3.40352 39.4303 2.39998 38.1982 1.74634C36.966 1.09269 35.568 0.818039 34.1802 0.957097C32.7923 1.09607 31.4765 1.64243 30.3984 2.52752C29.3203 3.41253 28.5282 4.59669 28.1215 5.93091C27.7148 7.26513 27.7119 8.68983 28.1131 10.0257C29.1661 13.4744 28.81 17.2 27.1228 20.3869C25.4354 23.5737 22.5544 25.9623 19.1102 27.0299C17.7505 27.4242 16.5405 28.2175 15.6368 29.3073C14.733 30.3971 14.1772 31.733 14.0414 33.1421C13.9056 34.5513 14.1959 35.9689 14.8749 37.2111C15.5538 38.4535 16.59 39.4633 17.8493 40.1101V40.1572Z" fill="#1D1D1D" fill-opacity="0.65"/>
<path d="M36.0438 39.0023C35.1037 39.0353 34.1797 39.2555 33.3258 39.6501C32.4719 40.0447 31.7054 40.6056 31.0709 41.3002C28.6097 43.9327 25.2062 45.4837 21.6047 45.614C18.0032 45.7443 14.4965 44.4432 11.8514 41.9954C11.168 41.3542 10.3639 40.8552 9.48595 40.5274C8.60804 40.1997 7.67368 40.0498 6.73724 40.0864C5.5846 40.1408 4.46269 40.4765 3.46963 41.0642C2.47648 41.6518 1.64239 42.4736 1.04 43.4578C0.437529 44.442 0.0852065 45.5587 0.0135991 46.7104C-0.0579216 47.8622 0.153438 49.0139 0.629406 50.0651C1.10537 51.1163 1.83132 52.0351 2.74403 52.7412C3.65674 53.4473 4.72834 53.9192 5.8654 54.1159C7.00246 54.3125 8.17043 54.2279 9.26723 53.8693C10.3641 53.5108 11.3565 52.8893 12.1578 52.0589C13.3767 50.7391 14.844 49.6728 16.4757 48.9211C18.1074 48.1693 19.8714 47.7468 21.6666 47.6779C23.4618 47.6089 25.253 47.8948 26.9375 48.5191C28.6221 49.1436 30.1669 50.0942 31.4834 51.3165C32.3406 52.091 33.3744 52.6436 34.4945 52.9261C35.6147 53.2086 36.7869 53.2123 37.9088 52.937C39.0307 52.6616 40.0679 52.1156 40.93 51.3466C41.792 50.5777 42.4525 49.6091 42.8538 48.5258C43.2549 47.4425 43.3845 46.2775 43.2314 45.1325C43.0781 43.9875 42.6466 42.8976 41.9746 41.9578C41.3027 41.0182 40.4109 40.2575 39.377 39.7423C38.343 39.2271 37.1986 38.9729 36.0438 39.0023Z" fill="#1D1D1D" fill-opacity="0.65"/>
</svg>
